HIERARCHY
ROOT Hips
{
	OFFSET	0.00	0.00	0.00
	CHANNELS 6 Xposition Yposition Zposition Zrotation Xrotation Yrotation
	JOINT LeftUpperLeg
	{
		OFFSET	 0.100000	-0.066564	-0.000554
		CHANNELS 3 Zrotation Xrotation Yrotation
		JOINT LeftLowerLeg
		{
			OFFSET	 0.002447	-0.463436	-0.005172
			CHANNELS 3 Zrotation Xrotation Yrotation
			JOINT LeftFoot
			{
				OFFSET	-0.002447	-0.420480	-0.020576
				CHANNELS 3 Zrotation Xrotation Yrotation
				JOINT LeftToes
				{
					OFFSET	 0.003734	-0.104922	 0.126407
					CHANNELS 3 Zrotation Xrotation Yrotation
					End Site
					{
						OFFSET	 0.000000	 0.000000	 0.059955
					}
				}
			}
		}
	}
	JOINT RightUpperLeg
	{
		OFFSET	-0.100000	-0.066564	-0.000554
		CHANNELS 3 Zrotation Xrotation Yrotation
		JOINT RightLowerLeg
		{
			OFFSET	-0.002447	-0.463436	-0.005146
			CHANNELS 3 Zrotation Xrotation Yrotation
			JOINT RightFoot
			{
				OFFSET	 0.002447	-0.420479	-0.020602
				CHANNELS 3 Zrotation Xrotation Yrotation
				JOINT RightToes
				{
					OFFSET	-0.003734	-0.104922	 0.126407
					CHANNELS 3 Zrotation Xrotation Yrotation
					End Site
					{
						OFFSET	-0.000000	 0.000000	 0.059955
					}
				}
			}
		}
	}
	JOINT Spine
	{
		OFFSET	 0.000000	 0.099235	-0.012273
		CHANNELS 3 Zrotation Xrotation Yrotation
		JOINT Chest
		{
			OFFSET	-0.000001	 0.116455	-0.014223
			CHANNELS 3 Zrotation Xrotation Yrotation
			JOINT UpperChest
			{
				OFFSET	 0.000001	 0.133602	-0.016265
				CHANNELS 3 Zrotation Xrotation Yrotation
				JOINT LeftShoulder
				{
					OFFSET	 0.061058	 0.091105	 0.007056
					CHANNELS 3 Zrotation Xrotation Yrotation
					JOINT LeftUpperArm
					{
						OFFSET	 0.133942	-0.002659	-0.026009
						CHANNELS 3 Zrotation Xrotation Yrotation
						JOINT LeftLowerArm
						{
							OFFSET	 0.274047	 0.000000	 0.000000
							CHANNELS 3 Zrotation Xrotation Yrotation
							JOINT LeftHand
							{
								OFFSET	 0.276145	 0.000000	 0.000000
								CHANNELS 3 Zrotation Xrotation Yrotation
								End Site
								{
									OFFSET	 0.165687	 0.000000	 0.000000
								}
							}
						}
					}
				}
				JOINT Neck
				{
					OFFSET	 0.000000	 0.150325	 0.007929
					CHANNELS 3 Zrotation Xrotation Yrotation
					JOINT Head
					{
						OFFSET	 0.000000	 0.103218	 0.031424
						CHANNELS 3 Zrotation Xrotation Yrotation
						End Site
						{
							OFFSET	 0.000000	 0.061931	 0.018855
						}
					}
				}
				JOINT RightShoulder
				{
					OFFSET	-0.061057	 0.091105	 0.007056
					CHANNELS 3 Zrotation Xrotation Yrotation
					JOINT RightUpperArm
					{
						OFFSET	-0.133943	-0.002660	-0.026009
						CHANNELS 3 Zrotation Xrotation Yrotation
						JOINT RightLowerArm
						{
							OFFSET	-0.274047	 0.000000	 0.000000
							CHANNELS 3 Zrotation Xrotation Yrotation
							JOINT RightHand
							{
								OFFSET	-0.276145	 0.000000	 0.000000
								CHANNELS 3 Zrotation Xrotation Yrotation
								End Site
								{
									OFFSET	-0.165687	 0.000000	 0.000000
								}
							}
						}
					}
				}
			}
		}
	}
}
MOTION
Frames:    5
Frame Time: 0.03333334
 0.181600	 1.032160	-0.822630	-0.034333	-6.403039	 19.973880	-6.836600	 9.280301	 14.025230	-0.219526	 14.027100	 0.019487	 11.000450	-16.844060	 19.696880	 0.000139	 0.147544	 0.211352	-16.815880	-3.068082	-16.476200	-0.001247	 0.079806	 0.000127	-3.821489	 25.652280	-6.322305	-0.000379	-0.148082	-0.000277	 0.824176	-0.298291	 1.700641	-0.000000	 0.000000	 0.000000	 1.656964	-0.572798	 3.409255	 1.669055	-3.455770	 7.037299	-60.558100	-21.800730	-11.521050	-23.367930	 12.935190	-55.158480	 10.693490	-2.805433	-28.691940	-2.146847	 1.840822	-9.593503	-1.938834	 1.820050	-9.938260	 2.162322	 1.504356	-13.401090	 74.219990	-12.286230	 40.023440	 18.188490	 12.168650	 58.696620	-35.092190	-15.350400	 17.591100
 0.179320	 1.032830	-0.821620	-0.285029	-6.134531	 19.939460	-6.590055	 9.070312	 13.813430	-0.139937	 13.789640	 0.010026	 10.785590	-16.747700	 19.776440	 0.000432	 0.142044	 0.210784	-16.533140	-3.381586	-16.739160	-0.000507	 0.074203	-0.000034	-3.758490	 25.655800	-6.180983	 0.000092	-0.130676	-0.000172	 0.725820	-0.366096	 1.823385	-0.000000	 0.000000	 0.000000	 1.466440	-0.709469	 3.658222	 1.189793	-3.108608	 6.966642	-62.682900	-19.895890	-11.108890	-23.308680	 15.172330	-54.629830	 9.730449	 0.399113	-30.326990	-2.105270	 1.669919	-10.684870	-1.899090	 1.802271	-10.931180	 1.786413	 0.892258	-13.313790	 74.360890	-12.635000	 41.638240	 17.369600	 10.437790	 58.179230	-34.990480	-15.743200	 18.345470
 0.176790	 1.033610	-0.820000	-0.629791	-5.918009	 19.864550	-6.235289	 8.910819	 13.455190	-0.094568	 13.546730	 0.003986	 10.581690	-16.717190	 20.172500	-0.000392	 0.334910	 0.198894	-16.104680	-3.665322	-16.830900	-0.000709	 0.075593	 0.000110	-3.681428	 25.634270	-6.208324	-0.000440	-0.112610	 0.000638	 0.632616	-0.460078	 1.940771	-0.000000	 0.000000	 0.000000	 1.281380	-0.897923	 3.893514	 0.859606	-2.467279	 6.937540	-64.923790	-18.360190	-11.004840	-23.673730	 16.917850	-53.710770	 9.257256	 3.914649	-31.952890	-1.993079	 1.591198	-11.595570	-1.788973	 1.774765	-11.827970	 1.503979	 0.491431	-13.442390	 74.411310	-12.828680	 42.918380	 16.164620	 9.335437	 57.927920	-35.093780	-16.358510	 18.565080
 0.173440	 1.034980	-0.816980	-1.099263	-5.868886	 19.873400	-5.619825	 8.846317	 12.540060	-0.100177	 13.439660	 0.004875	 10.758080	-16.407750	 20.973780	-0.000585	 0.373256	 0.510479	-15.414800	-3.744846	-17.168100	-0.000551	 0.080576	 0.000537	-3.596783	 25.564700	-6.162248	 0.000406	-0.085957	-0.000214	 0.525256	-0.530590	 2.056229	-0.000000	 0.000000	 0.000000	 1.070241	-1.044194	 4.124777	 0.393937	-1.548742	 6.835473	-67.291720	-16.416520	-10.753940	-23.809630	 19.148370	-52.899130	 9.727838	 7.615776	-33.316380	-1.882743	 1.610488	-12.594820	-1.655452	 1.748931	-12.824770	 1.035330	 0.143380	-13.625740	 74.176320	-13.024790	 43.804410	 15.348660	 8.010543	 58.155490	-36.912720	-16.689370	 17.929050
 0.171050	 1.035940	-0.815100	-1.341998	-5.733629	 19.944570	-5.280708	 8.793294	 12.236010	-0.047083	 13.231320	-0.000804	 10.718150	-16.223570	 21.059490	-0.000524	 0.374664	 0.541043	-15.058360	-3.847111	-17.621110	-0.001108	 0.073996	-0.000356	-3.605630	 25.463290	-5.917420	-0.000182	-0.068611	 0.000244	 0.417351	-0.558525	 2.055658	-0.000000	 0.000000	 0.000000	 0.856450	-1.102756	 4.122716	 0.157518	-0.987227	 6.692374	-68.749190	-14.848830	-10.561690	-24.158020	 20.401450	-52.446080	 10.021040	 9.623662	-33.194730	-1.851127	 1.851204	-13.410860	-1.633519	 1.893721	-13.410110	 0.619430	-0.086568	-13.852020	 73.788340	-13.114050	 43.978270	 15.003840	 7.101414	 58.474000	-38.275170	-17.159740	 17.525050
